<svg width="600" height="600" viewBox="0 0 600 600" fill="none" xmlns="http://www.w3.org/2000/svg">
<g clip-path="url(#clip0_502_51)">
<path d="M6.50928 599.492V276.829C6.50928 255.903 14.5424 235.834 28.8414 221.037C43.1405 206.24 62.5341 197.927 82.756 197.927H140.066C156.434 197.927 172.132 204.656 183.706 216.633C195.28 228.61 201.783 244.855 201.783 261.793V599.492" fill="white"/>
<path d="M6.50928 599.492V276.829C6.50928 255.903 14.5424 235.834 28.8414 221.037C43.1405 206.24 62.5341 197.927 82.756 197.927H140.066C156.434 197.927 172.132 204.656 183.706 216.633C195.28 228.61 201.783 244.855 201.783 261.793V599.492" stroke="black" stroke-width="13" stroke-miterlimit="10"/>
<path d="M151.462 555.959C137.581 547.423 121.804 542.747 105.661 542.383C89.5182 542.02 73.559 545.983 59.333 553.886" stroke="black" stroke-miterlimit="10"/>
<path d="M133.257 562.86C124.246 561.174 115.115 560.273 105.959 560.166C95.5455 559.954 85.1352 560.717 74.855 562.446" stroke="black" stroke-miterlimit="10"/>
<path d="M74.6045 330.57C63.3202 330.553 52.5027 325.907 44.5244 317.649C36.5461 309.391 32.0582 298.195 32.0449 286.518V133.016C32.0608 117.806 37.9067 103.224 48.2998 92.4685C58.6929 81.7135 72.7844 75.6641 87.4825 75.6477H124.204C138.546 75.6477 152.3 81.5433 162.441 92.0376C172.582 102.532 178.28 116.765 178.28 131.606V284.477C178.266 296.703 173.565 308.423 165.208 317.065C156.851 325.707 145.522 330.564 133.707 330.57H74.6045Z" fill="white"/>
<path d="M124.204 77.7202C138.014 77.7202 151.259 83.3975 161.025 93.5031C170.791 103.609 176.277 117.315 176.277 131.606V284.477C176.263 296.153 171.773 307.346 163.792 315.6C155.811 323.853 144.99 328.492 133.707 328.497H74.6244C63.8704 328.484 53.5608 324.056 45.9575 316.186C38.3542 308.316 34.0782 297.647 34.0676 286.518V133.016C34.0835 118.359 39.7156 104.307 49.7288 93.9413C59.742 83.5756 73.319 77.7421 87.4824 77.7202H124.204ZM124.204 73.5751H87.4824C72.2483 73.5751 57.6381 79.8376 46.8659 90.9848C36.0937 102.132 30.042 117.251 30.042 133.016V286.518C30.0407 292.575 31.1923 298.572 33.4312 304.168C35.6701 309.764 38.9523 314.849 43.0905 319.132C47.2286 323.416 52.1416 326.813 57.5488 329.131C62.956 331.449 68.7515 332.642 74.6044 332.642H133.687C146.032 332.642 157.871 327.568 166.6 318.535C175.328 309.502 180.232 297.251 180.232 284.477V131.606C180.232 116.215 174.324 101.455 163.807 90.572C153.29 79.6891 139.027 73.5751 124.154 73.5751H124.204Z" fill="black"/>
<path d="M178.25 204.145V285.513C178.25 312.114 157.691 333.679 132.325 333.679H76.0065C51.7225 333.679 32.0449 313.026 32.0449 287.554V204.145" fill="#FF0000"/>
<path d="M178.25 204.145V285.513C178.25 312.114 157.691 333.679 132.325 333.679H76.0065C51.7225 333.679 32.0449 313.026 32.0449 287.554V204.145" stroke="black" stroke-width="4" stroke-miterlimit="10"/>
<path d="M201.943 600V215.461C201.943 163.523 236.081 121.42 278.2 121.42H335.5C369.548 121.42 397.216 155.492 397.216 197.534V600" fill="white"/>
<path d="M201.943 600V215.461C201.943 163.523 236.081 121.42 278.2 121.42H335.5C369.548 121.42 397.216 155.492 397.216 197.534V600" stroke="black" stroke-width="13" stroke-miterlimit="10"/>
<path d="M347.556 498.052C333.676 489.516 317.898 484.84 301.755 484.477C285.612 484.113 269.653 488.076 255.427 495.979" stroke="black" stroke-miterlimit="10"/>
<path d="M329.351 504.953C320.34 503.273 311.209 502.375 302.053 502.269C291.64 502.055 281.23 502.815 270.949 504.539" stroke="black" stroke-miterlimit="10"/>
<path d="M271.64 256.995C260.354 256.981 249.534 252.336 241.554 244.077C233.573 235.819 229.084 224.622 229.071 212.943V59.4404C229.089 44.2314 234.936 29.6508 245.329 18.8964C255.721 8.14199 269.811 2.09173 284.508 2.07254H321.2C335.542 2.07254 349.296 7.96815 359.437 18.4624C369.578 28.9567 375.275 43.19 375.275 58.0311V210.902C375.262 223.122 370.565 234.838 362.215 243.479C353.864 252.12 342.542 256.981 330.733 256.995H271.64Z" fill="white"/>
<path d="M321.2 4.14508C335.01 4.14508 348.255 9.82234 358.021 19.9279C367.786 30.0335 373.273 43.7396 373.273 58.0311V210.902C373.259 222.572 368.773 233.761 360.798 242.014C352.824 250.266 342.011 254.909 330.733 254.922H271.65C260.893 254.914 250.578 250.489 242.97 242.618C235.363 234.748 231.084 224.075 231.073 212.943V59.4404C231.089 44.7802 236.724 30.7252 246.742 20.3589C256.759 9.99256 270.341 4.16153 284.508 4.14508H321.2ZM321.2 0H284.508C269.274 0 254.664 6.26245 243.892 17.4097C233.12 28.5569 227.068 43.6758 227.068 59.4404V212.943C227.068 225.176 231.764 236.908 240.123 245.558C248.482 254.208 259.819 259.067 271.64 259.067H330.723C336.836 259.069 342.89 257.824 348.538 255.404C354.186 252.984 359.319 249.436 363.642 244.964C367.965 240.491 371.394 235.181 373.734 229.336C376.074 223.492 377.278 217.228 377.278 210.902V58.0311C377.278 42.6403 371.37 27.8799 360.853 16.9969C350.336 6.11398 336.073 0 321.2 0Z" fill="black"/>
<path d="M375.275 130.57V211.938C375.275 238.539 354.717 260.104 329.361 260.104H273.042C248.758 260.104 229.071 239.451 229.071 213.979V130.57" fill="#FF0000"/>
<path d="M375.275 130.57V211.938C375.275 238.539 354.717 260.104 329.361 260.104H273.042C248.758 260.104 229.071 239.451 229.071 213.979V130.57" stroke="black" stroke-width="4" stroke-miterlimit="10"/>
<path d="M398.217 599.668V277.005C398.217 266.643 400.19 256.382 404.022 246.808C407.855 237.235 413.472 228.537 420.553 221.21C427.634 213.883 436.041 208.071 445.293 204.107C454.544 200.142 464.46 198.102 474.474 198.104H531.774C548.143 198.104 563.84 204.832 575.414 216.809C586.988 228.786 593.491 245.031 593.491 261.969V599.668" fill="white"/>
<path d="M398.217 599.668V277.005C398.217 266.643 400.19 256.382 404.022 246.808C407.855 237.235 413.472 228.537 420.553 221.21C427.634 213.883 436.041 208.071 445.293 204.107C454.544 200.142 464.46 198.102 474.474 198.104H531.774C548.143 198.104 563.84 204.832 575.414 216.809C586.988 228.786 593.491 245.031 593.491 261.969V599.668" stroke="black" stroke-width="13" stroke-miterlimit="10"/>
<path d="M546.836 551.938C532.955 543.402 517.177 538.726 501.034 538.363C484.892 538 468.933 541.962 454.707 549.865" stroke="black" stroke-miterlimit="10"/>
<path d="M528.63 558.839C519.619 557.159 510.487 556.261 501.332 556.155C490.919 555.941 480.509 556.701 470.228 558.425" stroke="black" stroke-miterlimit="10"/>
<path d="M467.915 331.606C456.629 331.593 445.809 326.947 437.829 318.689C429.848 310.43 425.359 299.233 425.346 287.554V134.052C425.364 118.843 431.211 104.262 441.604 93.5078C451.996 82.7534 466.086 76.7031 480.783 76.6839H517.475C531.816 76.6839 545.571 82.5796 555.712 93.0738C565.853 103.568 571.55 117.801 571.55 132.642V285.513C571.537 297.733 566.84 309.449 558.49 318.091C550.139 326.732 538.817 331.593 527.008 331.606H467.915Z" fill="white"/>
<path d="M517.475 78.7565C531.285 78.7565 544.53 84.4337 554.296 94.5393C564.061 104.645 569.547 118.351 569.547 132.642V285.513C569.534 297.184 565.048 308.373 557.073 316.625C549.098 324.878 538.286 329.52 527.008 329.534H467.925C457.168 329.525 446.853 325.1 439.245 317.23C431.638 309.359 427.359 298.686 427.348 287.554V134.052C427.364 119.392 432.999 105.337 443.017 94.9703C453.034 84.604 466.616 78.7729 480.783 78.7565H517.475ZM517.475 74.6114H480.783C465.549 74.6114 450.939 80.8738 440.167 92.0211C429.395 103.168 423.343 118.287 423.343 134.052V287.554C423.343 299.787 428.039 311.519 436.398 320.169C444.757 328.819 456.094 333.679 467.915 333.679H526.998C533.111 333.68 539.165 332.435 544.813 330.015C550.461 327.595 555.594 324.048 559.917 319.575C564.24 315.102 567.669 309.792 570.009 303.948C572.349 298.103 573.553 291.839 573.553 285.513V132.642C573.553 117.252 567.645 102.491 557.128 91.6083C546.611 80.7254 532.348 74.6114 517.475 74.6114Z" fill="black"/>
<path d="M571.55 205.181V286.549C571.55 313.15 550.992 334.715 525.636 334.715H469.317C445.033 334.715 425.346 314.062 425.346 288.591V205.181" fill="#FF0000"/>
<path d="M571.55 205.181V286.549C571.55 313.15 550.992 334.715 525.636 334.715H469.317C445.033 334.715 425.346 314.062 425.346 288.591V205.181" stroke="black" stroke-width="4" stroke-miterlimit="10"/>
</g>
<defs>
<clipPath id="clip0_502_51">
<rect width="600" height="600" fill="white"/>
</clipPath>
</defs>
</svg>
