<?xml version="1.0" standalone="no"?>
<!DOCTYPE svg PUBLIC "-//W3C//DTD SVG 20010904//EN"
 "http://www.w3.org/TR/2001/REC-SVG-20010904/DTD/svg10.dtd">
<svg version="1.0" xmlns="http://www.w3.org/2000/svg"
 width="599.000000pt" height="599.000000pt" viewBox="0 0 599.000000 599.000000"
 preserveAspectRatio="xMidYMid meet">
<metadata>
Created by potrace 1.14, written by Peter Selinger 2001-2017
</metadata>
<g transform="translate(0.000000,599.000000) scale(0.100000,-0.100000)"
fill="#000000" stroke="none">
<path d="M2686 5875 c-148 -41 -293 -160 -360 -295 -61 -126 -66 -166 -66
-609 l0 -393 -55 -59 c-149 -162 -255 -432 -255 -656 l0 -82 -69 68 -69 68 -4
399 c-4 347 -7 406 -23 454 -63 197 -204 336 -400 397 -52 16 -96 18 -330 18
-234 0 -278 -2 -330 -18 -156 -48 -289 -154 -357 -283 -72 -138 -71 -132 -76
-604 l-4 -425 -62 -65 c-107 -111 -176 -238 -210 -388 -14 -64 -16 -238 -16
-1687 l0 -1616 68 3 67 3 5 1630 c5 1556 6 1632 24 1685 23 68 66 154 100 199
l26 35 0 -280 c0 -387 20 -465 146 -592 77 -77 160 -118 265 -132 96 -12 582
-12 679 0 185 24 327 142 398 328 25 66 26 74 31 404 l6 338 33 -49 c18 -26
45 -77 60 -112 l27 -64 3 -1698 2 -1697 75 0 75 0 0 1913 c0 1825 1 1916 19
2002 21 103 66 217 116 296 l34 54 1 -286 c0 -158 5 -310 10 -340 36 -190 200
-349 390 -379 83 -13 603 -13 695 0 171 24 315 141 388 313 20 49 22 70 27
392 l5 340 38 -75 c20 -41 46 -111 57 -154 20 -78 20 -112 20 -2078 l0 -1999
78 3 77 3 5 1630 5 1630 24 65 c29 82 44 110 95 185 l41 60 5 -335 c5 -310 7
-339 27 -392 60 -161 207 -282 373 -308 84 -13 616 -13 700 0 90 14 200 70
263 134 60 59 120 167 136 244 7 32 11 178 11 370 l1 317 20 -25 c26 -30 62
-101 80 -155 11 -33 15 -346 19 -1730 l5 -1690 68 -3 67 -3 0 1680 c0 1188 -3
1696 -11 1733 -25 118 -140 312 -219 368 l-29 21 -3 417 -3 417 -27 68 c-70
174 -197 293 -373 350 -65 20 -88 22 -335 22 -296 0 -329 -5 -450 -63 -51 -25
-96 -57 -141 -102 -72 -71 -109 -128 -148 -229 l-26 -66 -3 -421 -3 -422 -68
-68 c-37 -38 -76 -82 -88 -98 l-20 -29 -6 219 c-5 190 -9 232 -31 316 -31 122
-98 253 -176 346 l-60 71 0 388 c0 315 -3 400 -15 448 -48 188 -189 339 -374
402 -63 21 -81 22 -356 22 -211 -1 -303 -4 -339 -14z m644 -46 c181 -42 346
-215 380 -398 6 -30 10 -221 10 -427 l0 -374 -702 2 -703 3 0 390 0 390 26 72
c60 163 182 280 349 334 47 15 94 18 325 18 152 0 290 -4 315 -10z m-1939
-719 c158 -48 291 -180 339 -338 19 -59 20 -93 20 -453 l0 -389 -700 0 -700 0
0 378 c0 411 4 445 58 546 34 66 153 184 218 219 95 50 136 56 430 56 243 1
279 -1 335 -19z m3940 -14 c128 -45 226 -129 289 -247 55 -104 60 -146 60
-559 l0 -375 -705 0 -705 0 0 360 c0 274 4 376 15 428 39 187 168 330 355 394
61 21 82 22 345 23 268 0 283 -1 346 -24z"/>
<path d="M2889 1219 c-94 -9 -226 -47 -304 -87 -70 -36 -34 -39 45 -4 122 55
189 67 365 67 180 0 251 -15 393 -81 82 -37 117 -41 61 -7 -137 85 -363 130
-560 112z"/>
<path d="M2763 1041 c-49 -6 -72 -16 -62 -25 2 -3 40 0 84 6 78 10 390 4 468
-8 43 -7 51 10 10 20 -40 10 -438 16 -500 7z"/>
<path d="M4879 699 c-93 -9 -225 -47 -304 -87 -71 -36 -40 -39 42 -4 132 56
193 67 368 67 179 0 251 -15 393 -80 74 -34 104 -39 66 -10 -36 27 -191 84
-270 99 -109 20 -194 25 -295 15z"/>
<path d="M915 659 c-113 -14 -325 -86 -325 -110 0 -14 8 -11 95 25 124 54 222
69 389 63 157 -6 228 -22 354 -82 41 -19 78 -35 84 -35 20 0 -6 22 -60 49 -83
42 -205 77 -307 90 -101 12 -130 12 -230 0z"/>
<path d="M4748 521 c-45 -7 -66 -16 -57 -25 2 -3 40 0 84 6 78 10 390 4 468
-8 43 -7 51 10 10 20 -40 10 -449 16 -505 7z"/>
<path d="M890 489 c-119 -9 -157 -16 -144 -28 5 -5 34 -5 64 -1 81 12 347 12
435 -1 71 -10 97 -8 83 7 -20 19 -295 34 -438 23z"/>
</g>
</svg>
